<svg xmlns="http://www.w3.org/2000/svg" width="480" height="300" viewBox="0 0 480 300">
<defs><linearGradient id="sky" x1="0" y1="0" x2="0" y2="1"><stop offset="0" stop-color="#2d3561"/><stop offset="1" stop-color="#6c5ce7"/></linearGradient></defs>
<rect width="480" height="300" fill="url(#sky)"/>
<circle cx="390" cy="60" r="22" fill="#ffeaa7"/><rect x="20" y="140" width="70" height="160" fill="#34495e"/><rect x="100" y="90" width="80" height="210" fill="#2c3e50"/><rect x="190" y="160" width="60" height="140" fill="#34495e"/><rect x="260" y="60" width="90" height="240" fill="#22313f"/><rect x="360" y="130" width="100" height="170" fill="#34495e"/><rect x="115" y="110" width="10" height="12" fill="#ffeaa7"/><rect x="115" y="150" width="10" height="12" fill="#ffeaa7"/><rect x="115" y="190" width="10" height="12" fill="#ffeaa7"/><rect x="115" y="230" width="10" height="12" fill="#ffeaa7"/><rect x="140" y="110" width="10" height="12" fill="#ffeaa7"/><rect x="140" y="150" width="10" height="12" fill="#ffeaa7"/><rect x="140" y="190" width="10" height="12" fill="#ffeaa7"/><rect x="140" y="230" width="10" height="12" fill="#ffeaa7"/><rect x="160" y="110" width="10" height="12" fill="#ffeaa7"/><rect x="160" y="150" width="10" height="12" fill="#ffeaa7"/><rect x="160" y="190" width="10" height="12" fill="#ffeaa7"/><rect x="160" y="230" width="10" height="12" fill="#ffeaa7"/><rect x="280" y="110" width="10" height="12" fill="#ffeaa7"/><rect x="280" y="150" width="10" height="12" fill="#ffeaa7"/><rect x="280" y="190" width="10" height="12" fill="#ffeaa7"/><rect x="280" y="230" width="10" height="12" fill="#ffeaa7"/><rect x="305" y="110" width="10" height="12" fill="#ffeaa7"/><rect x="305" y="150" width="10" height="12" fill="#ffeaa7"/><rect x="305" y="190" width="10" height="12" fill="#ffeaa7"/><rect x="305" y="230" width="10" height="12" fill="#ffeaa7"/><rect x="330" y="110" width="10" height="12" fill="#ffeaa7"/><rect x="330" y="150" width="10" height="12" fill="#ffeaa7"/><rect x="330" y="190" width="10" height="12" fill="#ffeaa7"/><rect x="330" y="230" width="10" height="12" fill="#ffeaa7"/><rect x="380" y="110" width="10" height="12" fill="#ffeaa7"/><rect x="380" y="150" width="10" height="12" fill="#ffeaa7"/><rect x="380" y="190" width="10" height="12" fill="#ffeaa7"/><rect x="380" y="230" width="10" height="12" fill="#ffeaa7"/><rect x="410" y="110" width="10" height="12" fill="#ffeaa7"/><rect x="410" y="150" width="10" height="12" fill="#ffeaa7"/><rect x="410" y="190" width="10" height="12" fill="#ffeaa7"/><rect x="410" y="230" width="10" height="12" fill="#ffeaa7"/><rect x="435" y="110" width="10" height="12" fill="#ffeaa7"/><rect x="435" y="150" width="10" height="12" fill="#ffeaa7"/><rect x="435" y="190" width="10" height="12" fill="#ffeaa7"/><rect x="435" y="230" width="10" height="12" fill="#ffeaa7"/>
</svg>
